<svg width="24" height="25" viewBox="0 0 24 25" fill="none" xmlns="http://www.w3.org/2000/svg">
<path d="M16.8797 3.37993C16.7636 3.26352 16.6256 3.17116 16.4738 3.10815C16.3219 3.04513 16.1591 3.0127 15.9947 3.0127C15.8303 3.0127 15.6674 3.04513 15.5156 3.10815C15.3637 3.17116 15.2258 3.26352 15.1097 3.37993L6.69967 11.7899C6.60697 11.8824 6.53342 11.9923 6.48324 12.1133C6.43306 12.2343 6.40723 12.364 6.40723 12.4949C6.40723 12.6259 6.43306 12.7556 6.48324 12.8766C6.53342 12.9975 6.60697 13.1074 6.69967 13.1999L15.1097 21.6099C15.5997 22.0999 16.3897 22.0999 16.8797 21.6099C17.3697 21.1199 17.3697 20.3299 16.8797 19.8399L9.53967 12.4999L16.8897 5.14993C17.3697 4.65993 17.3697 3.86993 16.8797 3.37993V3.37993Z" fill="#0A5AC2"/>
</svg>
