<svg width="116" height="116" viewBox="0 0 116 116" fill="none" xmlns="http://www.w3.org/2000/svg">
<path d="M84.8759 97H30.6104" stroke="#3E898B" stroke-width="2.66407" stroke-miterlimit="10" stroke-linecap="round" stroke-linejoin="round"/>
<path d="M49.2545 84.6739L47.1962 91.9206C46.4027 94.7144 43.3903 97 40.502 97" stroke="#3E898B" stroke-width="2.66407" stroke-miterlimit="10" stroke-linecap="round" stroke-linejoin="round"/>
<path d="M66.2324 84.6739L68.2907 91.9206C69.0842 94.7144 72.0966 97 74.9849 97" stroke="#3E898B" stroke-width="2.66407" stroke-miterlimit="10" stroke-linecap="round" stroke-linejoin="round"/>
<path d="M95.9926 15.9999H19.4956C16.6073 15.9999 14.2441 18.3771 14.2441 21.2825V79.3912C14.2441 82.2967 16.6073 84.6738 19.4956 84.6738H95.9926C98.881 84.6738 101.244 82.2967 101.244 79.3912V21.2825C101.244 18.3771 98.881 15.9999 95.9926 15.9999Z" stroke="#3E898B" stroke-width="2.66407" stroke-miterlimit="10" stroke-linecap="round" stroke-linejoin="round"/>
<path d="M14.2441 68.8262H101.244" stroke="#3E898B" stroke-width="2.66407" stroke-miterlimit="10" stroke-linecap="round" stroke-linejoin="round"/>
<path d="M19.4951 45.0548V63.5439H95.9921V21.2831H19.4951V39.7722" stroke="#3E898B" stroke-width="2.66407" stroke-miterlimit="10" stroke-linecap="round" stroke-linejoin="round"/>
<path d="M60.3687 76.7498C60.3687 78.2085 59.1931 79.3911 57.7429 79.3911C56.2928 79.3911 55.1172 78.2085 55.1172 76.7498C55.1172 75.2911 56.2928 74.1085 57.7429 74.1085C59.1931 74.1085 60.3687 75.2911 60.3687 76.7498Z" stroke="#3E898B" stroke-width="2.66407" stroke-miterlimit="10" stroke-linecap="round" stroke-linejoin="round"/>
</svg>
