<svg width="32" height="32" viewBox="0 0 32 32" fill="none" xmlns="http://www.w3.org/2000/svg">
<path d="M16 14C15.1617 14.0033 14.3524 14.3073 13.7193 14.8568C13.0862 15.4063 12.6714 16.1649 12.5503 16.9944C12.4292 17.8239 12.6098 18.6694 13.0594 19.3769C13.509 20.0845 14.1976 20.6072 15 20.85V23C15 23.2652 15.1054 23.5196 15.2929 23.7071C15.4804 23.8946 15.7348 24 16 24C16.2652 24 16.5196 23.8946 16.7071 23.7071C16.8946 23.5196 17 23.2652 17 23V20.85C17.8024 20.6072 18.491 20.0845 18.9406 19.3769C19.3902 18.6694 19.5708 17.8239 19.4497 16.9944C19.3286 16.1649 18.9138 15.4063 18.2807 14.8568C17.6476 14.3073 16.8383 14.0033 16 14ZM16 19C15.7033 19 15.4133 18.912 15.1666 18.7472C14.92 18.5824 14.7277 18.3481 14.6142 18.074C14.5006 17.7999 14.4709 17.4983 14.5288 17.2074C14.5867 16.9164 14.7296 16.6491 14.9393 16.4393C15.1491 16.2296 15.4164 16.0867 15.7074 16.0288C15.9983 15.9709 16.2999 16.0007 16.574 16.1142C16.8481 16.2277 17.0824 16.42 17.2472 16.6666C17.412 16.9133 17.5 17.2033 17.5 17.5C17.5 17.8978 17.342 18.2794 17.0607 18.5607C16.7794 18.842 16.3978 19 16 19ZM26 10H21.5V6.5C21.5 5.04131 20.9205 3.64236 19.8891 2.61091C18.8576 1.57946 17.4587 1 16 1C14.5413 1 13.1424 1.57946 12.1109 2.61091C11.0795 3.64236 10.5 5.04131 10.5 6.5V10H6C5.46957 10 4.96086 10.2107 4.58579 10.5858C4.21071 10.9609 4 11.4696 4 12V26C4 26.5304 4.21071 27.0391 4.58579 27.4142C4.96086 27.7893 5.46957 28 6 28H26C26.5304 28 27.0391 27.7893 27.4142 27.4142C27.7893 27.0391 28 26.5304 28 26V12C28 11.4696 27.7893 10.9609 27.4142 10.5858C27.0391 10.2107 26.5304 10 26 10ZM12.5 6.5C12.5 5.57174 12.8687 4.6815 13.5251 4.02513C14.1815 3.36875 15.0717 3 16 3C16.9283 3 17.8185 3.36875 18.4749 4.02513C19.1313 4.6815 19.5 5.57174 19.5 6.5V10H12.5V6.5ZM26 26H6V12H26V26Z" fill="#5DA386"/>
</svg>
