<svg width="32" height="32" viewBox="0 0 32 32" fill="none" xmlns="http://www.w3.org/2000/svg">
<path d="M18.963 4.18798C19.0039 4.13625 19.0546 4.09312 19.1123 4.06107C19.1699 4.02903 19.2333 4.0087 19.2989 4.00127C19.3644 3.99383 19.4307 3.99943 19.4941 4.01775C19.5574 4.03606 19.6165 4.06673 19.668 4.10798L20.748 4.97398L16.799 9.99998H19.343L22.311 6.22398L24.815 8.22998C24.8675 8.27199 24.9109 8.32415 24.9428 8.38334C24.9746 8.44253 24.9942 8.50753 25.0004 8.57446C25.0065 8.64139 24.9991 8.70887 24.9786 8.77288C24.9581 8.83689 24.9249 8.8961 24.881 8.94698L23.973 9.99998H26.587C26.9313 9.47974 27.0686 8.84957 26.972 8.23324C26.8755 7.61692 26.5519 7.05897 26.065 6.66898L20.918 2.54698C20.6609 2.34112 20.3656 2.1881 20.0492 2.0967C19.7327 2.00531 19.4014 1.97735 19.0741 2.01443C18.7468 2.0515 18.4301 2.15289 18.1421 2.31276C17.8541 2.47262 17.6005 2.68782 17.396 2.94598L11.809 9.99998H14.36L18.963 4.18798ZM21 19C20.7348 19 20.4804 19.1053 20.2929 19.2929C20.1054 19.4804 20 19.7348 20 20C20 20.2652 20.1054 20.5196 20.2929 20.7071C20.4804 20.8946 20.7348 21 21 21H24C24.2652 21 24.5196 20.8946 24.7071 20.7071C24.8946 20.5196 25 20.2652 25 20C25 19.7348 24.8946 19.4804 24.7071 19.2929C24.5196 19.1053 24.2652 19 24 19H21ZM6 6.99998C5.20435 6.99998 4.44129 7.31605 3.87868 7.87866C3.31607 8.44127 3 9.20434 3 9.99998V24.5C3 25.6935 3.47411 26.8381 4.31802 27.682C5.16193 28.5259 6.30653 29 7.5 29H24.5C25.6935 29 26.8381 28.5259 27.682 27.682C28.5259 26.8381 29 25.6935 29 24.5V15.5C29 14.3065 28.5259 13.1619 27.682 12.318C26.8381 11.4741 25.6935 11 24.5 11H6C5.73478 11 5.48043 10.8946 5.29289 10.7071C5.10536 10.5196 5 10.2652 5 9.99998C5 9.73477 5.10536 9.48041 5.29289 9.29288C5.48043 9.10534 5.73478 8.99998 6 8.99998H10.58L12.176 6.99998H6ZM5 24.5V12.83C5.313 12.94 5.65 13 6 13H24.5C25.163 13 25.7989 13.2634 26.2678 13.7322C26.7366 14.2011 27 14.8369 27 15.5V24.5C27 25.163 26.7366 25.7989 26.2678 26.2678C25.7989 26.7366 25.163 27 24.5 27H7.5C6.83696 27 6.20107 26.7366 5.73223 26.2678C5.26339 25.7989 5 25.163 5 24.5Z" fill="#5DA386"/>
</svg>
